<?xml version="1.0" encoding="utf-8"?>
<!-- Generator: Adobe Illustrator 18.0.0, SVG Export Plug-In . SVG Version: 6.00 Build 0)  -->
<!DOCTYPE svg PUBLIC "-//W3C//DTD SVG 1.1//EN" "http://www.w3.org/Graphics/SVG/1.1/DTD/svg11.dtd">
<svg version="1.1" id="Слой_1" xmlns="http://www.w3.org/2000/svg" xmlns:xlink="http://www.w3.org/1999/xlink" x="0px" y="0px"
	 viewBox="0 0 220 70" enable-background="new 0 0 220 70" xml:space="preserve">
<g>
	<g>
		<polygon fill="#D2B25E" points="114.4,28.8 114.4,28.9 114.4,28.9 114.4,28.8 		"/>
		<polygon fill="#D2B25E" points="133,16.1 133,16.1 133,16.1 		"/>
		<polygon fill="#D2B25E" points="133,16.1 133,16.1 133,16.1 		"/>
		<polygon fill="#D2B25E" points="141.8,16.1 141.8,16.1 141.8,16.1 		"/>
		<polygon fill="#D2B25E" points="141.8,16.1 141.8,16.1 141.8,16.1 		"/>
		<rect x="114.4" y="28.9" fill="#D2B25E" width="0" height="0"/>
		<polygon fill="#D2B25E" points="195.3,23.9 197.4,18 197.9,16.7 198.7,17.8 199.4,18.7 201.5,16.5 203.5,14.5 202.8,17.2 
			202.5,18.5 203.9,17.9 206.8,16.5 204.8,19 200.4,24.6 200.1,24.9 199.8,24.9 196,24.9 195,24.9 195.3,23.9 		"/>
		<polygon fill="#D2B25E" points="197.8,31.2 197.8,31.2 197.8,31.2 		"/>
		<path fill="#D2B25E" d="M102.4,19.7c0-0.1,0-0.2,0-0.3c0-0.1,0-0.2,0-0.3c0-0.1,0-0.2-0.1-0.3l0,0c-0.1-0.5-0.2-1.1-0.5-1.6
			c-0.2-0.5-0.5-1-0.8-1.5c-0.3-0.5-0.7-0.9-1.1-1.3c-0.1-0.1-0.2-0.2-0.3-0.2L99,13.8l0.5-0.3c0.2-0.2,0.5-0.3,0.7-0.4
			c0.5-0.3,0.9-0.5,1.2-0.6l0.3-0.1c0.2-0.1,0.4-0.2,0.6-0.3l0.1-0.1c0.2-0.1,0.3-0.2,0.4-0.3l0.1-0.1c0,0,0,0,0,0l0,0
			c0-0.1,0-0.1,0-0.2c0-0.1,0-0.2-0.1-0.3c0-0.1-0.1-0.2-0.2-0.3c-0.1-0.1-0.1-0.1-0.2-0.1c-0.1,0-0.2-0.1-0.3-0.1
			c0,0-0.2,0-0.6,0.2c-0.3,0.1-0.7,0.3-1.1,0.5c-0.4,0.2-0.9,0.5-1.5,0.8c-0.4,0.2-0.8,0.5-1.3,0.8l-0.2,0.1l-0.9-0.3
			c-0.4-0.1-0.8-0.2-1.4-0.4c-0.5-0.1-1.1-0.2-1.7-0.3c-0.6-0.1-1.3-0.2-2-0.3c-0.7-0.1-1.5-0.1-2.2-0.1c-0.5,0-1.1,0-1.7,0.1
			c-0.6,0-1.1,0.1-1.7,0.2c-0.6,0.1-1.1,0.2-1.7,0.3c-0.6,0.1-1.1,0.2-1.7,0.4l-0.1,0c-3,0.8-6,2-8.8,3.6c-2.8,1.6-5.5,3.7-8,6.2
			c-5.1,5-7.7,10.8-7.7,17.4v0.1c0,1.4,0.2,2.8,0.6,3.9c0.4,1.2,1,2.2,1.9,3c0.8,0.9,1.8,1.5,3,1.9c1.2,0.4,2.5,0.6,3.9,0.6
			c2.1,0,4.1-0.5,5.9-1.4c1.8-1,3.4-2.4,4.8-4.3c1.4-1.9,2.8-3.9,4.1-5.9c1.3-2.1,2.6-4.3,3.8-6.5l0.2-0.4c0.1-0.1,0.1-0.2,0.2-0.3
			v0l0-0.1c0.1-0.1,0.1-0.3,0.2-0.4c0.1-0.2,0.2-0.3,0.2-0.4l0,0c0.8-1.4,1.6-2.8,2.4-4.2c0.8-1.3,1.6-2.7,2.4-3.9
			c0.8-1.3,1.6-2.4,2.5-3.4c0.7-0.8,1.5-1.5,2.3-2.2l0.3-0.2l0.3,0.3c0.1,0.1,0.3,0.3,0.4,0.5c0.2,0.3,0.4,0.7,0.6,1.1
			c0.2,0.4,0.3,0.8,0.4,1.3c0.1,0.4,0.2,0.8,0.2,1.3l0,0.7c0,1.2-0.2,2.3-0.5,3.2c-0.3,1-0.8,1.8-1.5,2.6c-0.7,0.8-1.4,1.3-2.2,1.7
			c-0.8,0.4-1.7,0.6-2.7,0.6l-0.2,0c-0.1,0-0.1,0-0.2,0l-0.1,0l0-0.1l-0.3,0c-0.1,0-0.1,0-0.2,0c-0.1,0-0.1,0-0.2,0
			c-0.1,0-0.1,0-0.2,0c-0.2,0-0.4,0-0.6,0.1c-0.2,0.1-0.3,0.1-0.4,0.3c-0.1,0.1-0.2,0.2-0.2,0.3C89,29.3,89,29.4,89,29.5
			c0,0.2,0,0.3,0.1,0.4c0.1,0.1,0.1,0.3,0.3,0.3c0.1,0.1,0.2,0.1,0.3,0.1c0.2,0,0.3,0.1,0.5,0c0.1,0,0.1,0,0.2-0.1l0.1,0
			c0,0,0,0,0,0l0.2,0c0,0,0.1,0,0.1,0c0.1,0,0.1,0,0.2,0l0.1,0c0.1,0,0.1,0,0.2,0c0.1,0,0.1,0,0.2,0c1,0,1.9,0.1,2.6,0.3
			c0.8,0.2,1.5,0.5,2,1c0.6,0.4,1,1,1.3,1.7c0.3,0.7,0.4,1.6,0.4,2.6c0,0.2,0,0.3,0,0.4c0,0.1,0,0.2,0,0.4c0,0.1,0,0.3,0,0.4
			c0,0.1,0,0.2,0,0.3l0,0c-0.2,1.2-0.5,2.3-0.9,3.4c-0.5,1.1-1.1,2.1-1.9,3.1c-0.8,1-1.7,1.7-2.6,2.2c-0.9,0.5-2,0.7-3.1,0.7
			c-0.6,0-1.1-0.1-1.5-0.3c-0.4-0.2-0.8-0.4-1.1-0.7l-0.1-0.1c-0.3-0.3-0.4-0.7-0.6-1.1c-0.2-0.5-0.2-1.1-0.2-1.7
			c0-0.8,0.1-1.6,0.4-2.4c0.3-0.7,0.7-1.4,1.3-2c0.6-0.6,1.2-1.2,1.9-1.7c0.7-0.5,1.4-0.9,2.1-1.2l0,0c0,0,0,0,0,0l0,0l0.4-0.2
			c0.1,0,0.1-0.1,0.2-0.1l0,0c0,0,0.1,0,0.1-0.1l0,0c0,0,0.1-0.1,0.1-0.1c0,0,0-0.1,0.1-0.1l0,0c0,0,0-0.1,0-0.1c0-0.1,0-0.1,0-0.1
			c0-0.1,0-0.1,0-0.2c0-0.1-0.1-0.2-0.2-0.2L92,33.9l-0.1-0.1h-0.2c0,0-0.1,0-0.5,0.1c-0.2,0.1-0.5,0.2-0.9,0.4
			c-0.4,0.2-0.8,0.4-1.2,0.6c-0.3,0.2-0.7,0.4-1,0.7l-0.2,0.2c-0.5,0.3-0.9,0.7-1.3,1.2c-0.4,0.4-0.8,0.9-1.2,1.5
			c-0.4,0.5-0.7,1.1-0.9,1.8c-0.2,0.6-0.3,1.3-0.3,2c0,1.1,0.2,2.1,0.5,2.9c0.3,0.8,0.8,1.5,1.4,1.9c0.6,0.4,1.3,0.8,2.1,1
			c0.8,0.2,1.6,0.3,2.5,0.3c1.4,0,2.7-0.3,4-0.8l0.1,0c1.2-0.5,2.4-1.3,3.5-2.3c1.1-1,2-2.3,2.5-3.6c0.6-1.4,0.8-2.9,0.8-4.5
			c0-1.2-0.2-2.4-0.6-3.3c-0.4-1-1.1-1.8-1.9-2.4c-0.8-0.6-1.7-1.1-2.6-1.5c-0.2-0.1-0.5-0.2-0.7-0.3l-1.1-0.4l1.1-0.4
			c0.8-0.3,1.6-0.7,2.3-1.2c0.8-0.5,1.5-1.1,2.2-1.8c0.7-0.7,1.3-1.6,1.7-2.6c0.4-1,0.6-2.1,0.6-3.3C102.4,20,102.4,19.9,102.4,19.7
			z M76,43.9c-1.2,1.2-2.3,2.3-3.4,3c-1.2,0.6-2.1,1-3.4,1c-1.2,0-2.2-0.2-3-0.6c-0.8-0.4-1.6-1-2.1-1.8c-0.5-0.8-1-1.8-1.2-2.8
			c-1.2-6.1,0.5-10.3,1.8-13.2c1.3-2.9,3.3-5.8,5.8-8.1c2.5-2.4,5.4-4.3,8.1-5.6c2.8-1.3,5.7-2,8.8-2.3l0,0c0.2,0,0.4-0.1,0.6-0.1
			c0.2,0,0.4,0,0.6,0c0.2,0,0.4,0,0.6,0l0.6,0l0.4,0c0.1,0,0.2,0,0.4,0c0.1,0,0.2,0,0.4,0l0.2,0c0.1,0,0.1,0,0.2,0l0,0
			c0.4,0,0.9,0.1,1.4,0.2c0.5,0.1,1,0.2,1.5,0.3c0.5,0.1,1.5,0.7,1.5,0.7s-0.4,0.3-2.3,2.3C86.1,24.8,81.4,38.4,76,43.9z"/>
		<rect x="139.6" y="15.3" fill="#D2B25E" width="0" height="0"/>
		<path fill="#D2B25E" d="M146.9,46.5c0.5,0.4,1.3,0.7,2.3,1l0.1,0c1,0.2,2.1,0.4,3.4,0.5c1.3,0.1,2.6,0.2,4,0.2
			c2.6,0,5-0.1,7.3-0.4c2.3-0.3,4.4-0.7,6.2-1.3c1.9-0.6,3.7-1.3,5.4-2.2c1.7-0.9,3.3-2.1,4.8-3.4l0.4-0.3c0.6-0.5,1.1-1.1,1.7-1.7
			c0.7-0.7,1.3-1.5,1.9-2.3c0.6-0.8,1.2-1.6,1.8-2.5c0.5-0.8,1.1-1.7,1.5-2.5c1.1-2.1,2.1-4.2,2.8-6.5c0.7-2.2,1.2-4.5,1.5-6.9
			c0.1-0.6,0.1-1.2,0.2-1.7c0-0.6,0.1-1.2,0.1-1.7c0-0.9,0-1.6-0.1-2.2c-0.1-0.6-0.2-1.1-0.3-1.4c-0.2-0.3-0.3-0.5-0.6-0.7
			c-0.2-0.2-0.5-0.3-0.8-0.3c-0.4,0-0.7,0.1-1,0.3c-0.3,0.2-0.5,0.5-0.6,1c-0.1,0.4-0.2,0.9-0.3,1.5c-0.1,0.6-0.1,1.3-0.1,2.1
			c0,0.5,0,1.5,0,2.5c0,6,0.1,9.3-3.4,15.5c-0.3,0.4-0.5,0.9-0.8,1.3c-0.3,0.5-0.6,0.9-0.9,1.3l-0.2,0.2c-0.3,0.4-0.5,0.7-0.8,1.1
			c-0.3,0.4-0.7,0.8-1,1.2l-0.2,0.2c-1.1,1.3-2.4,2.4-3.8,3.4c-1.5,1.1-3.1,2-4.9,2.8c-1.8,0.8-3.6,1.4-5.5,1.8
			c-1.1,0.2-2.2,0.4-3.3,0.5l-3.3,0.3l3-1.3c0.9-0.4,1.7-0.8,2.5-1.3c2.1-1.3,4-3.1,5.7-5.4c1.7-2.2,3-4.6,3.8-7.1
			c0.8-2.5,1.3-5.1,1.3-7.8c0-2-0.2-3.8-0.7-5.5c-0.5-1.7-1.2-3.2-2.2-4.5c-1-1.4-2.2-2.4-3.7-3.1c-1.5-0.7-3.3-1-5.3-1
			c-1.8,0-3.5,0.3-5.1,1c-1.6,0.7-3.1,1.7-4.5,3c-1.4,1.3-2.6,2.8-3.5,4.5c-0.9,1.6-1.6,3.4-2.1,5.4l0,0.2l-0.1,0.1
			c-0.7,0.6-1.4,1.2-2,1.8c-0.6,0.6-1.2,1.2-1.6,1.8l-0.1,0.2c-0.1,0.2-0.3,0.4-0.4,0.6c-0.7,1.1-0.7,1.6-0.6,1.8
			c0,0,0.1,0.1,0.1,0.1c0.1,0,0.1,0,0.2,0c0,0,0.2,0,0.6-0.5c0.2-0.3,0.5-0.7,0.8-1.2l0.2-0.2c0.3-0.4,0.7-0.9,1.2-1.4
			c0.2-0.2,0.3-0.4,0.5-0.5l1-1l-0.1,1.4c0,0.2,0,0.4,0,0.6c0,0.4,0,0.8,0,1.1c0,1.4,0.2,2.8,0.6,4c0.4,1.3,1,2.5,1.8,3.6
			c0.8,1.1,1.8,2,2.9,2.6c1.1,0.6,2.5,0.9,3.9,0.9c1.3,0,2.5-0.2,3.6-0.6c1.1-0.4,2.1-1,2.9-1.8c0.9-0.8,1.5-1.8,2-2.9
			c0.4-1.1,0.7-2.3,0.7-3.7c0-1.6-0.3-3.1-0.8-4.2c-0.5-1.2-1.3-2.2-2.4-2.9c-1.1-0.7-2.2-1.3-3.4-1.7c-1.2-0.4-2.4-0.6-3.7-0.6
			c-0.1,0-0.3,0-0.6,0c-0.2,0-0.5,0.1-0.7,0.1c-0.3,0-0.5,0.1-0.8,0.2c-0.3,0.1-0.6,0.1-0.9,0.2c-0.3,0.1-0.5,0.2-0.8,0.2
			c-0.3,0.1-0.5,0.2-0.7,0.3l-0.1,0h-0.8l0.2-0.9c0.1-0.3,0.2-0.6,0.3-0.9c0.1-0.2,0.2-0.5,0.3-0.7l0,0l0.1-0.2c0.4-1,1-1.9,1.7-2.8
			c0.7-0.9,1.5-1.8,2.5-2.6c1-0.8,2-1.5,3-1.9c1-0.4,2.1-0.6,3.2-0.6c1.8,0,3.3,0.4,4.6,1.1c1.3,0.7,2.4,1.8,3.2,3.2
			c0.8,1.4,1.5,2.9,1.9,4.5c0.5,1.6,0.7,3.2,0.8,4.9l0,0c0,0.1,0,0.2,0,0.3c0,0.1,0,0.2,0,0.3v0.6c0,2.8-0.4,5.3-1.2,7.6
			c-0.8,2.3-2,4.4-3.6,6.3c-1.6,1.9-3.4,3.3-5.5,4.2c-2,0.9-4.3,1.4-6.8,1.4c-0.2,0-0.4,0-0.6,0c-0.2,0-0.4,0-0.6-0.1
			c-0.2,0-0.4-0.1-0.6-0.1c-0.2,0-0.4-0.1-0.6-0.1c-0.3-0.1-0.5-0.1-0.7-0.2c-0.2-0.1-0.4-0.1-0.6-0.2h0l-0.1,0
			c-0.2-0.1-0.5-0.2-0.7-0.2c-0.2-0.1-0.4-0.2-0.6-0.2l0,0c-0.5-0.2-0.9-0.3-1.2-0.5c-0.3-0.1-0.7-0.3-1.1-0.4
			c-0.4-0.1-0.7-0.2-0.9-0.3c-0.5-0.1-0.9-0.1-1.2,0c-0.2,0.1-0.3,0.1-0.4,0.2c-0.2,0.1-0.3,0.3-0.4,0.4c-0.1,0.2-0.1,0.3-0.1,0.6
			C146.1,45.6,146.4,46.1,146.9,46.5z M152,24c0.1,0,0.2-0.1,0.3-0.1c0.2-0.1,0.5-0.2,0.8-0.3c0.3-0.1,0.6-0.2,0.9-0.3
			c0.3-0.1,0.6-0.2,0.9-0.2l0.2,0c0.1,0,0.3,0,0.4-0.1c0.2,0,0.3-0.1,0.6-0.1c0.2,0,0.4,0,0.5-0.1c0.3,0,0.7,0,0.9,0
			c0.1,0,0.3,0,0.4,0c0.1,0,0.3,0,0.4,0.1l0,0c0.2,0,0.3,0.1,0.4,0.1l0.1,0c1,0.2,1.9,0.6,2.8,1.1c0.9,0.5,1.7,1.2,2.5,2
			c0.8,0.8,1.4,1.8,1.8,2.8c0.4,1,0.6,2.1,0.6,3.3v0.1c0,0.9-0.1,1.8-0.4,2.5c-0.3,0.7-0.7,1.3-1.3,1.7c-0.6,0.5-1.2,0.8-1.9,1
			c-0.7,0.2-1.5,0.3-2.3,0.3c-1.2,0-2.3-0.3-3.3-0.9c-1-0.6-2-1.5-2.9-2.6c-0.9-1.2-1.5-2.4-2-3.7l-0.2-0.7h0
			c-0.3-1.1-0.4-2.3-0.4-3.5c0-0.2,0-0.3,0-0.4c0-0.1,0-0.2,0-0.4l0-0.1c0-0.1,0-0.2,0-0.3c0-0.1,0-0.2,0-0.3l0-0.3
			c0-0.1,0-0.1,0-0.2l0-0.3L152,24z"/>
		<g>
			<path fill="#D2B25E" d="M214.8,20.7c0.3,0,0.6,0,0.9,0.1c0.3,0.1,0.6,0.2,0.9,0.4c0.3,0.2,0.5,0.4,0.7,0.6
				c0.2,0.2,0.4,0.5,0.6,0.7c0.2,0.3,0.3,0.6,0.4,0.9s0.1,0.6,0.1,1c0,0.3,0,0.6-0.1,1c-0.1,0.3-0.2,0.6-0.4,0.9
				c-0.2,0.3-0.3,0.5-0.6,0.7c-0.2,0.2-0.5,0.4-0.7,0.6c-0.3,0.2-0.6,0.3-0.9,0.4c-0.3,0.1-0.6,0.1-1,0.1c-0.3,0-0.6,0-1-0.1
				c-0.3-0.1-0.6-0.2-0.9-0.4c-0.3-0.2-0.5-0.3-0.7-0.6c-0.2-0.2-0.4-0.5-0.6-0.7c-0.2-0.3-0.3-0.6-0.4-0.9c-0.1-0.3-0.1-0.6-0.1-1
				c0-0.3,0-0.7,0.1-1c0.1-0.3,0.2-0.6,0.4-0.9c0.2-0.3,0.4-0.5,0.6-0.7c0.2-0.2,0.5-0.4,0.7-0.6c0.3-0.2,0.6-0.3,0.9-0.4
				C214.2,20.8,214.5,20.7,214.8,20.7z M214.8,27.4c0.3,0,0.5,0,0.8-0.1c0.3-0.1,0.5-0.2,0.7-0.3c0.2-0.1,0.4-0.3,0.6-0.5
				c0.2-0.2,0.3-0.4,0.5-0.6c0.1-0.2,0.2-0.5,0.3-0.7c0.1-0.3,0.1-0.5,0.1-0.8c0-0.3,0-0.5-0.1-0.8c-0.1-0.3-0.2-0.5-0.3-0.7
				c-0.1-0.2-0.3-0.4-0.5-0.6c-0.2-0.2-0.4-0.3-0.6-0.5c-0.2-0.1-0.5-0.2-0.7-0.3c-0.3-0.1-0.5-0.1-0.8-0.1c-0.3,0-0.5,0-0.8,0.1
				c-0.3,0.1-0.5,0.2-0.7,0.3c-0.2,0.1-0.4,0.3-0.6,0.5c-0.2,0.2-0.3,0.4-0.5,0.6c-0.1,0.2-0.2,0.5-0.3,0.7
				c-0.1,0.3-0.1,0.5-0.1,0.8c0,0.4,0.1,0.8,0.2,1.2c0.2,0.4,0.4,0.7,0.7,1c0.3,0.3,0.6,0.5,1,0.7C214,27.3,214.4,27.4,214.8,27.4z
				 M216.4,26.4h-0.7l-0.3-0.9c-0.1-0.3-0.2-0.4-0.4-0.6c-0.2-0.1-0.4-0.2-0.6-0.2h-0.5v1.6h-0.6v-3.9h1.5c1,0,1.5,0.4,1.5,1.1
				c0,0.7-0.3,1.1-1,1.1c0.3,0.1,0.6,0.4,0.8,0.7L216.4,26.4z M213.9,24.2h0.8c0.6,0,0.9-0.2,0.9-0.6c0-0.4-0.3-0.6-1-0.6h-0.8V24.2
				z"/>
		</g>
		<path fill="#D2B25E" d="M143.7,32.2c-0.1-0.1-0.2-0.1-0.3-0.1c-0.3,0.1-0.4,0.3-0.7,0.6c-0.3,0.4-0.8,0.9-1.6,1.7
			c-1.2,1.2-2.2,2-3.2,2.4c-1,0.5-1.7,0.7-2.2,0.7h0c-0.6,0-0.9-0.2-1.1-0.4c-0.2-0.2-0.3-0.7-0.3-1.5c0-0.2,0-0.4,0.1-0.6
			c0-0.2,0.1-0.4,0.1-0.5c0.4-0.1,0.9-0.2,1.5-0.4c0.6-0.2,1.3-0.4,2-0.7c1.2-0.5,2.2-1,3.2-1.8c1-0.7,1.5-1.6,1.5-2.6h0v0h0
			c0-0.6-0.2-1.1-0.6-1.5c-0.4-0.4-0.9-0.6-1.6-0.6c-0.6,0-1.2,0.1-1.8,0.3c-0.6,0.2-1.3,0.5-1.9,0.9c-0.6,0.4-1.1,0.7-1.7,1.2
			c-0.6,0.4-1.1,0.9-1.6,1.5c-0.1,0.1-0.2,0.2-0.3,0.3c-0.1,0.1-0.2,0.3-0.3,0.4c0,0-0.1,0-0.1,0.1c0,0,0,0-0.1,0.1
			c-0.2,0.2-0.3,0.4-0.5,0.5c-0.1,0.1-0.2,0.2-0.2,0.3c-0.1,0.1-0.1,0.1-0.2,0.2c-0.2,0.3-0.8,1-1.7,1.9c-1,1-1.8,1.7-2.6,2.2
			c-0.7,0.5-1.4,0.7-1.9,0.7c-0.1,0-0.2,0-0.3-0.1c-0.1-0.1-0.1-0.1-0.1-0.2c0,0,0,0,0,0c0-0.3,0.1-0.8,0.4-1.4
			c0.3-0.6,0.7-1.3,1.2-2.3c1.3-2.3,2.1-3.7,2.6-4.3c0.5-0.6,0.9-1,1.2-1.2l0.1-0.1v0c0,0,0,0,0,0c0,0,0,0,0.1-0.1
			c0.6-0.5,1.2-1,2-1.6c0.8-0.6,1.5-1.3,2.3-2c0.4-0.3,0.8-0.7,1.2-1.1c0.4-0.4,0.8-0.7,1.2-1.1c1.1-1.1,2.1-2.2,2.8-3.2
			c0.8-1,1.2-1.9,1.2-2.7h0v0c0-0.8-0.2-1.4-0.5-1.7c-0.4-0.3-0.8-0.5-1.4-0.5c-0.4,0-0.8,0.1-1.2,0.2c-0.4,0.1-0.8,0.3-1.1,0.6
			c-0.9,0.6-1.8,1.4-2.7,2.5c-0.9,1-1.7,2.1-2.5,3.3c-0.9,1.3-1.6,2.5-2.3,3.7c-0.7,1.2-1.2,1.9-1.6,2.4c-1.5,1.9-2.8,3.4-3.7,4.4
			c-0.5,0.5-0.8,0.9-1,1.2c-0.1,0.1-0.2,0.2-0.4,0.4c-0.2,0.3-0.8,1-1.7,1.9c-1,1-1.8,1.7-2.6,2.2c-0.7,0.5-1.4,0.7-1.9,0.7
			c-0.1,0-0.2,0-0.3-0.1c-0.1-0.1-0.1-0.1-0.1-0.2c0,0,0,0,0-0.1c0-0.3,0.1-0.8,0.4-1.3c0.3-0.6,0.7-1.3,1.2-2.3
			c1.3-2.3,2.1-3.7,2.6-4.3c0.5-0.6,0.9-1,1.2-1.2l0.1-0.1v0c0,0,0,0,0.1-0.1c0.6-0.5,1.2-1,2-1.6c0.8-0.6,1.5-1.3,2.3-2
			c0.4-0.3,0.8-0.7,1.2-1.1c0.4-0.4,0.8-0.7,1.2-1.1c1.1-1.1,2.1-2.2,2.8-3.2c0.8-1,1.2-1.9,1.2-2.7h0v0c0-0.8-0.2-1.4-0.5-1.7
			c-0.4-0.3-0.8-0.5-1.4-0.5c-0.4,0-0.8,0.1-1.2,0.2c-0.4,0.1-0.8,0.3-1.1,0.6c-0.9,0.6-1.8,1.4-2.7,2.5c-0.9,1-1.7,2.1-2.5,3.3
			c-0.9,1.3-1.6,2.5-2.3,3.7c-0.7,1.2-1.2,2-1.6,2.4c-1.5,1.9-2.8,3.4-3.7,4.5c-0.4,0.4-2.3,2.6-3.1,3.4c-1.2,1.2-2.2,2-3.2,2.4
			c-1,0.5-1.7,0.7-2.2,0.7h0c-0.6,0-0.9-0.2-1.1-0.4c-0.2-0.2-0.3-0.7-0.3-1.5c0-0.2,0-0.4,0.1-0.6c0-0.2,0.1-0.4,0.1-0.5
			c0.4-0.1,0.9-0.2,1.5-0.4c0.6-0.2,1.3-0.4,2-0.7c1.2-0.5,2.2-1,3.2-1.8c1-0.7,1.5-1.6,1.5-2.6v0c0-0.6-0.2-1.1-0.6-1.5
			c-0.4-0.4-0.9-0.6-1.6-0.6c-0.6,0-1.2,0.1-1.8,0.3c-0.6,0.2-1.3,0.5-1.9,0.9c-0.6,0.4-1.1,0.7-1.7,1.2c-0.6,0.4-1.1,0.9-1.6,1.5
			c-0.1,0.1-0.2,0.2-0.3,0.3c-0.1,0.1-0.2,0.3-0.3,0.4c0,0-0.1,0-0.1,0.1c0,0,0,0-0.1,0.1c-0.2,0.2-0.3,0.4-0.5,0.5
			c-0.1,0.2-0.2,0.3-0.3,0.5v0l0,0.1c0,0,0,0.1,0.1,0.1c0,0,0,0,0.1,0c0,0,0.1,0.1,0.1,0.1l0,0c0,0,0,0.1,0,0.1c0,0.1,0,0.2-0.1,0.3
			c0,0.1,0,0.3,0,0.4c0,0,0,0.1,0,0.1c0,0,0,0.1,0,0.1c0,1,0.3,2,0.8,2.8c0.5,0.9,1.4,1.3,2.5,1.3c0,0,0,0,0,0h0
			c0.4,0,0.8,0,1.2-0.1c0.4-0.1,0.8-0.2,1.2-0.4c0.5-0.2,1-0.5,1.5-0.8c0.5-0.4,1.1-0.8,1.7-1.3c0.1-0.1,0.2-0.2,0.3-0.3
			c0.1-0.1,0.3-0.2,0.4-0.4c0.1-0.1,0.1-0.2,0.2-0.2c0.1-0.1,0.2-0.2,0.2-0.2c0.4-0.5,2.3-2.5,3-3.3c0.6-0.6,1-1.2,1.4-1.6
			c-0.6,0.9-1,1.6-1.4,2.2c-0.6,0.9-1.1,1.7-1.4,2.5c-0.1,0.3-0.2,0.6-0.2,0.9c-0.1,0.3-0.1,0.6-0.1,1c0,0.5,0.1,1,0.4,1.5
			c0.3,0.5,0.8,0.7,1.5,0.7c0,0,0,0,0,0c0.8,0,1.7-0.4,2.7-1.1c1-0.7,2-1.7,3.2-2.9c0.1-0.1,0.2-0.2,0.3-0.3
			c0.1-0.1,0.2-0.2,0.3-0.3c0,0,0,0,0.1-0.1c0,0,0.1-0.1,0.1-0.1c0.2-0.2,0.4-0.5,0.6-0.7c0,0,0,0,0,0c0,0,0.1-0.1,0.1-0.1
			c0.2-0.2,0.7-0.8,1.4-1.6c0.6-0.6,1-1.2,1.4-1.6c-0.6,0.9-1,1.6-1.4,2.2c-0.6,0.9-1.1,1.7-1.4,2.5c-0.1,0.3-0.2,0.6-0.2,0.9
			c-0.1,0.3-0.1,0.6-0.1,1c0,0.5,0.1,1,0.4,1.5c0.3,0.5,0.8,0.7,1.5,0.7c0,0,0,0,0,0c0.8,0,1.7-0.4,2.7-1.1c1-0.7,2-1.7,3.2-2.9
			c0.1-0.1,0.2-0.2,0.3-0.3c0.1-0.1,0.2-0.2,0.3-0.3c0,0,0,0,0.1-0.1c0,0,0.1-0.1,0.1-0.1c0.1-0.1,0.1-0.1,0.2-0.2c0,0,0,0.1,0,0.1
			c0,0.1,0,0.3,0,0.4c0,0,0,0.1,0,0.1c0,0,0,0.1,0,0.1c0,1,0.3,2,0.8,2.8c0.5,0.9,1.4,1.3,2.5,1.3c0,0,0,0,0,0h0
			c0.4,0,0.8,0,1.2-0.1c0.4-0.1,0.8-0.2,1.2-0.4c0.5-0.2,1-0.5,1.5-0.8c0.5-0.4,1.1-0.8,1.7-1.3c0.1-0.1,0.2-0.2,0.3-0.3
			c0.1-0.1,0.3-0.2,0.4-0.4c0.1-0.1,0.1-0.2,0.2-0.2c0.1-0.1,0.2-0.2,0.2-0.2c0.4-0.5,0.8-0.9,1.1-1.3c0.3-0.4,0.5-0.5,0.5-0.8
			C143.8,32.4,143.8,32.3,143.7,32.2z M135,32.8c0.2-0.4,0.5-0.8,0.7-1.2c0.4-0.5,0.8-1,1.2-1.5c0.4-0.5,0.9-0.9,1.4-1.3
			c0.4-0.3,0.8-0.5,1.1-0.7c0.3-0.1,0.5-0.2,0.8-0.3v0h0.2c0.2,0,0.4,0.1,0.5,0.1c0.1,0.1,0.1,0.2,0.1,0.4c0,1-0.4,1.9-1.3,2.7
			c-0.9,0.8-1.9,1.5-3,1.9c-0.4,0.2-0.8,0.3-1.2,0.4c-0.3,0.1-0.6,0.1-0.8,0.2C134.7,33.3,134.8,33.1,135,32.8z M132.9,22L132.9,22
			l0.4-0.7c0.8-1.7,1.8-3.2,2.8-4.5c1-1.3,2.1-1.9,3.2-1.9c0.3,0,0.6,0.1,0.7,0.2c0.1,0.1,0.2,0.3,0.2,0.6c0,1-0.4,2-1.1,3
			c-0.8,1-1.6,2-2.6,2.9c-0.3,0.3-0.6,0.6-0.9,0.9c-0.3,0.3-0.6,0.6-0.9,0.8l-4.8,4.3L132.9,22z M124,22L124,22l0.4-0.7
			c0.8-1.7,1.8-3.2,2.8-4.5c1-1.3,2.1-1.9,3.2-1.9c0.3,0,0.6,0.1,0.7,0.2c0.1,0.1,0.2,0.3,0.2,0.6c0,1-0.4,2-1.1,3
			c-0.8,1-1.6,2-2.6,2.9c-0.3,0.3-0.6,0.6-0.9,0.9c-0.3,0.3-0.6,0.6-0.9,0.8l-4.8,4.3L124,22z M106.2,32.8c0.2-0.4,0.5-0.8,0.7-1.2
			c0.4-0.5,0.8-1,1.2-1.5c0.4-0.5,0.9-0.9,1.4-1.3c0.4-0.3,0.8-0.5,1.1-0.7c0.3-0.1,0.5-0.2,0.8-0.3v0h0.2c0.2,0,0.4,0.1,0.5,0.1
			c0.1,0.1,0.1,0.2,0.1,0.4c0,1-0.4,1.9-1.3,2.7c-0.9,0.8-1.9,1.5-3,1.9c-0.4,0.2-0.8,0.3-1.2,0.4c-0.3,0.1-0.6,0.1-0.8,0.2
			C105.9,33.3,106.1,33.1,106.2,32.8z"/>
		<path fill="#D2B25E" d="M210.3,32.2c-0.1-0.1-0.2-0.1-0.3-0.1c-0.3,0.1-0.4,0.3-0.7,0.6c-0.3,0.4-0.8,0.9-1.5,1.7
			c-1.2,1.1-2.2,1.9-3.2,2.4c-0.9,0.5-1.7,0.7-2.2,0.7h0c-0.6,0-0.9-0.2-1.1-0.4c-0.2-0.2-0.3-0.7-0.3-1.5c0-0.2,0-0.4,0.1-0.6
			c0-0.2,0.1-0.3,0.1-0.5c0.4-0.1,0.9-0.2,1.5-0.4c0.6-0.2,1.3-0.4,2-0.7c1.1-0.5,2.2-1,3.2-1.7c1-0.7,1.5-1.6,1.5-2.6v0
			c0-0.6-0.2-1.1-0.6-1.5c-0.4-0.4-0.9-0.6-1.6-0.6c-0.6,0-1.2,0.1-1.8,0.3c-0.6,0.2-1.2,0.5-1.9,0.9c-0.6,0.3-1.1,0.7-1.7,1.2
			c-0.5,0.4-1.1,0.9-1.6,1.5c-0.1,0.1-0.2,0.2-0.3,0.3c-0.1,0.1-0.2,0.2-0.3,0.4c0,0-0.1,0-0.1,0.1c0,0,0,0-0.1,0.1
			c-0.1,0.1-0.2,0.3-0.4,0.4c0,0,0,0,0,0c0,0,0,0,0,0c0,0,0,0-0.1,0.1c-0.1,0.1-0.2,0.2-0.4,0.4c-0.3,0.4-0.7,0.8-1.1,1.2
			c0,0-0.1,0.1-0.1,0.1c0,0-0.1,0.1-0.1,0.2c-0.1,0.1-0.2,0.2-0.3,0.3c-0.1,0.1-0.2,0.2-0.3,0.3c-0.1,0.1-0.2,0.2-0.3,0.3
			c-0.1,0.1-0.2,0.2-0.3,0.3c-0.2,0.2-0.5,0.5-0.7,0.7c-0.3,0.2-0.5,0.4-0.8,0.6c-0.4,0.3-0.8,0.5-1.2,0.7c-0.4,0.2-0.7,0.3-1,0.3
			c0,0-0.1,0-0.1,0c-0.1,0-0.2-0.1-0.4-0.2c-0.1,0-0.1-0.2-0.1-0.5c0-0.3,0.3-1.1,0.9-2.1c0.6-1.1,2.1-3.6,4.5-7.5l0.2-0.3l-3,0.2
			v0.2c-0.2,0.2-0.4,0.6-0.8,0.9c-0.4,0.4-0.7,0.8-1.1,1.2c-0.3,0.3-0.5,0.6-0.8,0.8c-0.2,0.3-0.5,0.5-0.7,0.8
			c-0.5,0.6-0.8,0.9-1,1.1c-0.1,0.2-0.2,0.2-0.3,0.5c0,0.1,0,0.2,0.1,0.2c0,0.1,0.2,0.2,0.3,0.2c0,0,0.1,0,0.1,0h0.1l0.1-0.1
			c0,0,0.1-0.1,0.1-0.1c0.1-0.1,0.2-0.2,0.3-0.4c0.8-0.9,1.5-1.7,2-2.2c-0.1,0.1-0.2,0.3-0.3,0.4c-0.6,0.8-1.1,1.6-1.5,2.4
			c-0.5,0.8-0.7,1.7-0.8,2.6c0,0.1,0,0.2,0,0.3c0,0.1,0,0.1,0,0.2c0,0.6,0.2,1.1,0.5,1.6c0.4,0.4,0.9,0.6,1.5,0.6c0,0,0,0,0,0
			c0.6,0,1.3-0.3,2.1-0.8c0.8-0.5,1.7-1.3,2.7-2.3c0.8-0.8,1.4-1.4,1.8-1.9c0,0.1,0,0.1,0,0.2c0,0.1,0,0.3,0,0.4c0,0,0,0.1,0,0.1
			c0,0,0,0.1,0,0.1c0,1,0.3,1.9,0.8,2.8c0.5,0.9,1.4,1.3,2.4,1.3c0,0,0,0,0,0h0c0.4,0,0.8,0,1.2-0.1c0.4-0.1,0.8-0.2,1.1-0.3
			c0.5-0.2,1-0.5,1.5-0.8c0.5-0.4,1.1-0.8,1.7-1.3c0.1-0.1,0.2-0.2,0.3-0.3c0.1-0.1,0.2-0.2,0.4-0.4c0.1-0.1,0.1-0.2,0.2-0.2
			c0.1-0.1,0.2-0.2,0.2-0.2c0.4-0.5,0.8-0.9,1.1-1.3c0.3-0.4,0.5-0.5,0.5-0.8C210.4,32.4,210.4,32.3,210.3,32.2z M201.7,32.8
			c0.2-0.4,0.5-0.8,0.7-1.2c0.4-0.5,0.8-1,1.2-1.5c0.4-0.5,0.9-0.9,1.4-1.3c0.4-0.3,0.8-0.5,1.1-0.7c0.3-0.1,0.5-0.2,0.8-0.3v0h0.2
			c0.2,0,0.4,0.1,0.5,0.1c0.1,0.1,0.1,0.2,0.1,0.4c0,1-0.4,1.8-1.3,2.7c-0.9,0.8-1.9,1.5-3,1.9c-0.4,0.2-0.8,0.3-1.2,0.4
			c-0.3,0.1-0.6,0.1-0.8,0.2C201.4,33.3,201.5,33.1,201.7,32.8z"/>
	</g>
	<g>
		<path fill="none" d="M39.9,52c0,1.1-0.4,1.6-0.9,2.5c0.1,0.6,0.2,1,0.1,1.3c0.1-0.2,0.2-0.4,0.2-0.5c0-0.2-0.1-0.5-0.1-0.8
			c0,0,0,0,0,0c0,0,0-0.1-0.1-0.1c0.1-0.2,0.3-0.3,0.3-0.5c0.2-0.5,0.4-0.9,0.5-1.5c0-0.5-0.2-0.9-0.4-1.3
			C39.6,51.4,39.7,51.7,39.9,52z"/>
		<path fill="none" d="M42.8,34.6c0.1-0.5,0.2-1,0.2-1.5c0.1-2.8-0.3-5.6-1.6-7.8c-0.2-0.2-0.3-0.4-0.5-0.7
			C42.8,27.3,43.2,31,42.8,34.6z"/>
		<path fill="none" d="M37.9,57.6c0.1-0.2,0.1-0.5,0.1-0.7c0,0,0,0,0,0C38,57.2,37.9,57.4,37.9,57.6z"/>
		<path fill="#D2B25E" d="M18.9,9.1c0.1,0.9,0.2,1.1,0.5,1.1h0c0.2,0,0.5-0.1,1.1-0.2C20.4,8.7,20.3,9.1,18.9,9.1z"/>
		<path fill="#D2B25E" d="M14.7,19.4c-0.1,0.2,0,0.3,0.3,0.4C18.6,16,26,16,29.7,20c0.4,0,0.5-0.1,0.5-0.4
			C26.4,15.9,18.2,15.1,14.7,19.4z"/>
		<path fill="#D2B25E" d="M25.5,11.3c0.5-1.4-5.1-0.8-6-0.6l0.2,0.4C21.7,10.6,23.6,10.8,25.5,11.3z"/>
		<path fill="#D2B25E" d="M17.4,12c0.1,0.3,0.1,0.4,0.2,0.4c0.1,0,0.2-0.1,0.6-0.1c1.8,0,1.3-0.5,0.7-1.8
			C17.2,10.5,20.1,11.7,17.4,12z"/>
		<path fill="#D2B25E" d="M27.9,12.6L27.1,14c-2.2,1.4-2.1-1.3-2.1-2.4c-1.8-0.4-3.6-0.5-5.2-0.1c0,0.5-0.1,1.1-0.1,1.6
			c-0.1,1-0.4,1.4-0.8,1.4c-0.8,0-1.9-1.7-2.2-2.3c-3.1,1-2.6,2.4-2.2,5c-0.6,0.7-0.8,1.3-0.4,2c3-4.9,12.7-3.7,16.3-0.1
			c0.1-0.7-0.1-1.3-0.4-2C30.2,14.5,31,13.7,27.9,12.6z"/>
		<path fill="#D2B25E" d="M12.3,50.8l0.7-1.1c-2.8-1.4-4.5-3.9-5.6-6.9c-0.5,0.5,0.5,2.8,0.6,3.7C9.2,48.3,10.6,49.8,12.3,50.8z"/>
		<path fill="#D2B25E" d="M34.6,52.4c-0.7,0.4-0.3,1.5-1,1.2c-1.1-1.3-2.7-3.2-3.2-5.2c0,0,0,0,0,0c0,0,0,0,0,0
			c-0.1-0.3-0.1-0.6-0.2-0.8c0.6-0.7,1.2-1.5,1.7-2.4c0,0.2,0,0.5,0,0.9c-0.8,1.2-1.7,1-1.5,2.4c0,0,0,0,0,0
			c0.6-0.5,1.3-0.9,1.9-1.4c1-0.9,1-2.3,0.4-3.1c0.2-0.4,0.3-0.8,0.5-1.2c0.3,0.1,0.7-0.1,1.1-0.2c0.3-0.1,0.5-0.3,0.5-0.2
			c0.3,1.1,0.6,0.7,1.1-0.1c1.3-1.9,0.6-1.7,1.2,0.3c1.8,1.5,1.9-1.2,1.7-2.5c0.8,1,0.9,0.8,1.1-0.4c-0.1-0.4-0.8-3.1,0-1.4
			c2,0,1.9-8.2,1.8-9.9c0.2,1.4,0.7,10.6-1.7,10.6c0,0.8,0.1,1.4-0.1,2.2c-1.6,0.8-0.8,3.5-2.7,2.1c-0.8,1.8-1.3,3.6-0.7,5.3
			c0.7-0.1,0.6-1.8,1.6,0.5c0.3,0.7,1.7,1.4,1.5,0.1c1.3,0.4,2.1,0.9,3.2-0.4c1.7-2.1-1.6-3.8-2.3-2.1c-0.4,1,0,0.9,0.4,0.9
			c0.4,0,0.7-0.1,0.3,0.7c-1.9,0.6-1.4-3.3-1.1-4.1c1-2.8,2.3-6.2,2.9-9.6c0.4-3.6,0-7.4-2-10c-0.7-0.8-1.6-1.5-2.8-2.1
			c-2.2-1.1-6.4-1.3-7.6,1.4c-0.1-0.1-0.2-0.2-0.3-0.3c0.5-1.6,1.3-2.8,3.7-2.6c1,0.1,1.2,0.5,1.5-0.6c1.2,0.4,1.6-0.1,1.5-0.7
			c0-0.4-0.3-0.8-0.6-0.8c-0.8-1,0.6-2.1,0.2-3c-2.1,0-3-2.3-4.1,1.2c2.1-0.5,1,2.2-0.1,2.9c-1.6,1-2.5,1.9-2.8,3.1
			c-0.1-0.1-0.2-0.2-0.3-0.3c0-0.1,0-0.2,0-0.3c-0.6-0.7-0.7-1.4-0.4-2.3c-4.1-3.4-8.6-3.7-13.7-0.1c0.1,1.4-0.3,2.2-0.8,2.9
			c0,0,0,0.1,0,0.1c-0.1,0.1-0.2,0.2-0.3,0.3c-0.2-1.5-1.1-2.4-2.9-3.5c-1.1-0.7-2.1-3.4-0.1-2.9c-1-3.6-1.9-1.3-4.1-1.2
			c-0.3,1,1,2.1,0.2,3c-0.3,0-0.6,0.4-0.6,0.8c0,0.5,0.3,1.1,1.5,0.7C8.8,21.4,9,21,10,21c2.6-0.2,3.4,1.2,3.8,3
			c-0.1,0.1-0.1,0.2-0.2,0.3c0,0,0-0.1,0-0.1c-1-2.9-5.4-2.8-7.7-1.6c-8.5,4.3-4.3,14.9-1.8,21.7c0.3,0.8,0.7,4.2-0.7,4.2
			c-0.1,0-0.2,0-0.4-0.1c-0.4-0.8,0-0.7,0.3-0.7c0.4,0,0.8,0.1,0.4-0.9c-0.7-1.8-4,0-2.3,2.1c1,1.3,1.9,0.8,3.2,0.4
			C4.3,50.4,5.7,49.7,6,49c1-2.4,0.9-0.6,1.6-0.5c0.5-1.7,0.1-3.5-0.7-5.3C5,44.5,5.8,41.8,4.2,41c-0.2-0.8-0.2-1.4-0.1-2.2
			c-2.4,0.1-1.9-9.2-1.7-10.6c-0.1,1.7-0.3,9.9,1.8,9.9c0.8-1.7,0.1,1.1,0,1.4c0.2,1.2,0.3,1.4,1.1,0.4c-0.2,1.3-0.1,4,1.7,2.5
			c0.6-2-0.1-2.2,1.2-0.3c0.5,0.8,0.8,1.2,1.1,0.1c0,0,0.2,0.1,0.5,0.2c0.2,0.1,0.5,0.2,0.7,0.2c0.2,0.5,0.4,1,0.6,1.5
			c-0.4,0.8-0.3,2,0.6,2.8c0.6,0.5,1.2,0.9,1.9,1.4c0,0,0,0,0,0c0-0.1,0-0.3,0-0.4c0,0,0,0,0.1,0.1c0,0.1,0,0.2-0.1,0.3c0,0,0,0,0,0
			c0,0,0,0,0,0c-0.5,1.9-2.1,3.9-3.2,5.1c-0.1,0-0.2,0-0.2,0c-0.5,0-0.2-0.9-0.8-1.2c0-4.6-8-2-4.5,2c-0.5,1,0.1,2,1.1,2.4
			c0.2,2.2,1.7,3.3,4,2.7c3.6-0.9,4.2-4.1,6.8-6.1c1.4-0.4,1.6,0.3,1.7,1.2c-0.9-1.6-3.2-0.6-2.4,1.3c1.2,0.8,2.3,0.2,3.1-0.8
			C18.7,56,18,56.5,17,56.5c2.3,0.9,3.1-1.7,2.3-3.4c-1.8-3.7-6.3,2-8,3.9c-0.1,0.3-0.3,0.5-0.7,0.7c-1.8,1.6-2.8,0.6-2.8-0.5
			c0-0.6,0.3-1.3,1-1.3c0.2,0,0.4,0.1,0.7,0.2c0.6,0.3,0.8,1.1,0.6,1.8c0.2-0.1,0.4-0.1,0.6-0.2c0.1-0.1,0.3-0.2,0.4-0.4
			c0.1-0.1,0.2-0.2,0.3-0.3c0.1-0.6-0.5-1.4-0.6-2c1.4-1.4,3.3-3.5,4.1-5.8c0.1,0,0.1,0.1,0.2,0.1c-0.9,2.2-2.8,4.3-4,5.7
			c0,0.5,0.5,0.7,0.5,1.5c1.4-1.7,5.9-7.2,7.9-3.7c1.6-0.8,3.5-0.5,5.1,0.2c1.9-3.6,6.5,1.6,8,3.3c0-0.6,0.1-0.8,0.5-1.2
			c0-0.4-2.7-3.3-3.1-4c-0.5-0.8-0.9-1.4-1.1-2c0.1-0.1,0.2-0.2,0.3-0.3c0.8,2.4,2.8,4.7,4.3,6.2c-0.2,0.7-0.8,1.4-0.6,2
			c0.1,0.1,0.2,0.2,0.3,0.3c0.1,0.1,0.3,0.3,0.4,0.4c0.2,0.1,0.4,0.1,0.6,0.2c-0.1-0.6,0-1.5,0.6-1.8c0.2-0.1,0.5-0.2,0.7-0.2
			c0.7,0,1,0.6,1,1.3c-0.1,1-1,2.1-2.8,0.5c-0.4-0.2-0.6-0.4-0.7-0.7c-1.7-1.9-6.2-7.6-8-3.9c-0.8,1.7,0,4.3,2.3,3.4
			c-1.1,0-1.7-0.5-2.1-1.3c0.8,1,1.9,1.6,3.1,0.8c0.8-1.9-1.5-2.9-2.4-1.3c0.1-0.9,0.3-1.6,1.7-1.2c2.6,2,3.2,5.3,6.8,6.1
			c2,0.5,3.4-0.2,3.9-1.9c0-0.2,0.1-0.5,0.1-0.7c0,0,0,0,0,0c0,0,0,0,0-0.1c0.5-0.2,0.9-0.5,1.1-1c0.1-0.3,0.1-0.7-0.1-1.3
			c0.5-0.9,0.8-1.4,0.9-2.5c-0.2-0.3-0.3-0.6-0.4-0.8C38.3,49.5,34.6,49.3,34.6,52.4z M4.9,53.3c0-1.4,0.9-2.4,1.9-2.4c0,0,0,0,0,0
			c0.5,0,1.1,0.2,1.6,0.7C6.6,51.2,5.5,51.9,4.9,53.3z M6.2,55.8C6.3,54.4,7,53.4,8,53.4c0.4,0,0.8,0.2,1.3,0.5
			C7.7,54,6.7,54.6,6.2,55.8z M34.9,40.3c-0.3,0.2-0.7,0.4-1.1,0.6c0.1-0.2,0.1-0.4,0.1-0.5c0.9-0.3,1.1-0.7,2-1.9
			C35.7,38.9,35.3,40.7,34.9,40.3z M32.3,23.1c0.6,0,0.1,0.3-0.1,0.6c-1.3,4.3,4,4,3.9,0.6c0.4-0.8,0.5-0.5,1.3-0.1
			c3,3.8,2,8.6-0.5,12.5c-0.7,1.1-1.7,1.6-2.7,2c0,0,0,0,0-0.1C39,36,41,27.8,36.6,24.1c-0.5,0.1-0.1,0.8,0.1,1.1
			c2,3.1,1.5,6.5-1,9.3c-0.3,0.4-0.9,0.6-1.3,0.9c0-2.2-0.4-4.3-1-6.2c1.3,0.1,2.5-0.6,2.9-2.2c0.2-1.1-0.4-0.1-0.6,0.1
			c-0.6,0.5-1.4,1.1-2.2,0.8c-0.3-0.1-0.5-0.3-0.8-0.4c-0.3-0.7-0.7-1.3-1.1-1.9C31.6,24.7,31.9,23.9,32.3,23.1z M34.5,36.3
			c0-0.1,0-0.1,0-0.2c0.8-0.6,1.6-1.1,2.4-1.7C36.3,35,35.2,36.6,34.5,36.3z M7.1,36.7C4.6,32.8,3.6,28,6.6,24.2
			c0.8-0.5,0.9-0.7,1.3,0.1c-0.1,3.3,5.1,3.7,3.9-0.6c-0.3-0.4-0.7-0.6-0.1-0.6c0.6,1.2,0.9,2.3,0.5,3.2c-0.1,0.1-0.2,0.3-0.2,0.4
			c-0.3,0.4-0.8,0.8-1.4,1c-0.8,0.3-1.6-0.3-2.2-0.8c-0.2-0.2-0.9-1.2-0.6-0.1c0.4,1.7,1.8,2.4,3.1,2.2c-0.7,1.9-1.2,4-1.3,6.2
			c-1.5-1.9-5.5-5-2.2-10.1c0.2-0.3,0.6-1,0.1-1.1C3,27.7,4.9,35.8,9.6,38.6c0,0,0,0.1,0,0.1C8.6,38.3,7.7,37.8,7.1,36.7z M11,28.5
			c0,0,0,0.1-0.1,0.1c-0.1,0-0.2,0-0.2,0C10.8,28.6,10.9,28.5,11,28.5z M9.4,36.3c-0.7,0.2-1.8-1.3-2.3-1.9c0.8,0.5,1.5,1.1,2.3,1.7
			C9.4,36.1,9.4,36.2,9.4,36.3C9.4,36.3,9.4,36.3,9.4,36.3z M9.1,40.3c-0.5,0.3-0.9-1.4-1-1.8c0.8,1,1.1,1.5,1.8,1.8
			c0,0.2,0.1,0.4,0.1,0.5C9.6,40.6,9.3,40.4,9.1,40.3z M12.1,46C12.1,46,12.1,46,12.1,46c0.1,0,0.1,0.2,0.2,0.3
			C12.2,46.2,12.2,46.1,12.1,46z M21.9,50.9c-0.1,0-0.2,0-0.3,0h0c-6.3,0-11.4-6.6-11.4-14.7c0-8.3,5.3-15.2,11.8-15.5
			c0.1,0,0.2,0,0.3,0c6.3,0,11.4,6.6,11.4,14.7C33.7,43.8,28.4,50.7,21.9,50.9z M34.6,53.9c0.5-0.4,0.9-0.5,1.3-0.5
			c1,0,1.7,1.1,1.8,2.4C37.3,54.6,36.2,54,34.6,53.9z M35.5,51.7c0.5-0.5,1.1-0.7,1.6-0.7c1.1,0,2,1,1.9,2.4
			C38.4,51.9,37.3,51.3,35.5,51.7z"/>
		<path fill="#D2B25E" d="M28.7,37.4c0.2,3.7-3.1,7-6.7,7.2c3.1-1.2,4.9-5.8,3-8.6c1.6-1.4,1.5-3.9-0.7-4.6c1.8-0.6,3-3,1.2-4.3
			c1.7-1.1,0.8-1.2-0.6-0.3C19.7,24.3,12.7,30,14,35.1c0.1,0.5,0.4,1,0.8,1.3c4.7,3.8,9.1-10,10-8.5c0.7,1.2-0.1,3.5-1.7,3.2
			c-0.3-0.1-0.4,0-0.6,0.2c-0.2,0.9,2.4-0.3,2.4,1.8c0,2.8-1.5,1.3-3.2,1.7c0.1-1.1,2.1-1.8,1.7-2.3c-0.7,0-1.8,1-2.1,1.6
			c-0.7,1.6-2.3,2.1-2.9,4c-0.1,0.4-1.9,2-1.3,2.2c0.6,0.2,1-2.1,1.1-0.4c0.2,4.9,6.8,2.9,4.8-0.9c-0.7-1.3-2.6-1.6-3.9-1
			c0.1-0.4,1.8-3.2,2.1-2.4c0.4,1.1,1.9,1.2,2.8,0.9c1.6,2.9,0.5,6.4-2.1,7.4c-0.9,0.4-1.3,0.4-2.3,0c-1.3-0.5-1.4,0.8,0,1.1
			c0.8,0.2,1.4,0.1,2.2,0.1c3.8-0.4,7-3,7.8-7.1C30.4,34.3,28.5,33.4,28.7,37.4z M18.4,35.6c-1.2,1.2-3,1.2-3.5-0.7
			c-0.9-4.6,4.9-9.8,9.3-7.8C21.6,29.3,20.8,33.1,18.4,35.6z M22,39.2c2.6,2.4-1.5,5-2.9,1.4C18.2,38,20.6,38,22,39.2z M21.8,35.4
			c0.6,0,1.2,0.1,1.6,0.4C22.2,36.5,21.6,35.5,21.8,35.4z"/>
		<path fill="#D2B25E" d="M36.5,42.9c-1.1,3-2.8,5.5-5.6,6.9l0.7,1.1c1.7-1,3.1-2.5,4.3-4.3C36,45.7,37,43.4,36.5,42.9z"/>
		<path fill="#D2B25E" d="M22.2,21.8c-0.1,0-0.2,0-0.3,0c-6.1,0.2-11,6.6-11,14.4c0,7.5,4.8,13.7,10.7,13.7c0.1,0,0.2,0,0.3,0
			c6.1-0.2,11-6.6,11-14.4C33,28,28.2,21.8,22.2,21.8z M21.9,49.3c-0.1,0-0.2,0-0.3,0c-5.6,0-10.2-5.9-10.2-13.1
			c0-7.4,4.7-13.6,10.5-13.7c0.1,0,0.2,0,0.3,0c5.6,0,10.2,5.9,10.2,13.1C32.4,42.9,27.7,49.1,21.9,49.3z"/>
		<path fill="#D2B25E" d="M3.9,45.7c0,0.1,0.1,0.3,0.1,0.4C4,45.9,3.9,45.8,3.9,45.7z"/>
		<path fill="#D2B25E" d="M24.5,9.1c-0.2,1.5-0.1,1.1,1.4,1.3C26,9,25.9,9.4,24.5,9.1z"/>
		<path fill="#D2B25E" d="M15.8,5.2c-2.4,0.5-4.5,1.6-6.3,3.3l1.6,2.9c1.6-1.5,3.5-2.6,5.8-3.1L15.8,5.2z"/>
		<path fill="#D2B25E" d="M29.7,58.2c-1.7-0.1-0.9,0.2-1.4-0.9c-3,0-4.4-0.3-3.9-3.7c-2.5-0.6-2.1,1.8-2,3.8
			c0.1,2.9-0.1,5.9-0.4,8.8c-0.1-1.7,0.1-12.2-1.1-12.7c-1.2,0.1-1.2-0.2-1.1,1c0.2,4-3.8,2.1-4.3,3.2c0.1,0.5-0.3,0.5-0.7,0.5
			c-0.1,0-0.1,0-0.2,0c-0.7,0-1.5,0-0.8,1.5c0.4,1,2.1,1.5,1.6,2.1c1,0.6,1.4,0.5,2.5,0.2c0.5,1.1,1.2,3.1,2.4,1.4
			c-0.9-2.1,1.6-0.7-0.3,0.8c-0.3,0-0.7-0.1-1.1-0.2c-1-0.2-2-0.5-1.1,1.1c0,1.5,0.5,1.2,1.7,1.2c1.9-2.5-0.2,0.1,0.4,1
			c2,0.3,1.4,3,3.1,0.2c0.3-0.1,0.6-0.1,0.9-0.1c0.6-0.8-1.5-3.5,0.4-1c2.5,0.1,1-0.5,2.2-1.8c-0.1-0.9-0.7-0.7-1.4-0.5
			c-0.9,0.3-1.9,0.5-1.9-1.6c1.6-0.5-0.7,1.3,1.5,1.6c1.1-1.2,0.6-2.2,2.4-1.8c1.7-0.3,0.7-0.6,1.9-1.3
			C29.9,60.5,31.3,58.3,29.7,58.2z M17.4,61.7c0.3-0.8-1.1-0.9,0.3-2c-0.2-0.9-0.2-1.2-0.1-1.2c0.1,0,0.5,1.1,0,1.6
			C16.6,61.1,18.3,60.8,17.4,61.7z M20.4,60.9c-0.9-1.2-0.3-1.9,0.1-1.9c0.4,0,0.7,0.5,0.1,1.5C20.7,61,20.8,61,20.4,60.9z M23.5,61
			c-0.4,0-0.3,0-0.2-0.3c-0.5-1.1-0.2-1.5,0.1-1.5C23.9,59.1,24.4,59.8,23.5,61z M26.6,61.7c-1-0.8,0.7-0.6-0.2-1.6
			c-0.5-0.5-0.1-1.6,0.1-1.6c0.1,0,0.1,0.3-0.1,1.2C27.7,60.8,26.3,60.9,26.6,61.7z"/>
		<path fill="#D2B25E" d="M17.9,9.7c0.4,0,0.7-0.2,0.6-0.8C17.8,9.6,17,9,17.2,9.7C17.4,9.7,17.7,9.7,17.9,9.7z"/>
		<path fill="#D2B25E" d="M17.8,11.5c-0.2-0.6,0-1-0.7-1.1l0.2,0.8c-1.3,0.2-4.5,1.5-3.6,3C14.4,12.4,16.1,11.6,17.8,11.5z"/>
		<path fill="#D2B25E" d="M12.2,12.5c0.3,0.3,0.5,0.7,0.7,0.7c0.1,0,0.2-0.1,0.3-0.2C12.7,12.1,12.9,11.8,12.2,12.5z"/>
		<path fill="#D2B25E" d="M26.7,8.1C26.9,7,27,6,26.8,5c-2.8-0.7-5.7-0.8-8.9,0c-0.1,1.1,0.2,2,0.5,2.9C21.1,7.6,23.8,7.7,26.7,8.1z
			"/>
		<path fill="#D2B25E" d="M15.6,11.3c1.4-0.5,1.5-0.1,1.2-1.5C15.3,10.3,15,9.9,15.6,11.3z"/>
		<path fill="#D2B25E" d="M14.2,10.8c-1.1,0.7-1.3,0.4-0.7,1.6C14.7,11.7,14.8,12.1,14.2,10.8z"/>
		<path fill="#D2B25E" d="M11.7,12.1c1.4-1.4,3.1-2.4,5.2-2.9C16.7,8,10.8,11.1,11.7,12.1z"/>
		<path fill="#D2B25E" d="M28.1,9.5c1.9,0.6,3.4,1.5,4.3,3C33.4,11.6,28.6,8.4,28.1,9.5z"/>
		<path fill="#D2B25E" d="M26.3,9.8c0.7,0.4,1.4,0.6,1.6-0.3c-0.2,0.2-0.4,0.3-0.6,0.3c-0.2,0-0.3-0.1-0.5-0.1
			C26.6,9.5,26.4,9.4,26.3,9.8z"/>
		<path fill="#D2B25E" d="M27.7,11.5c0.1-0.7,0.3-0.8-0.4-0.8c-0.2,1.4-1.1,1-0.7,0.2c0-1.6-0.7,0.4-0.9,0.8c1.9,1,3.4-0.2,5,2.4
			C32,13.2,28.4,11.8,27.7,11.5z"/>
		<path fill="#D2B25E" d="M18.6,8.4l0,0.4c2.6-0.3,5.2-0.2,7.7,0.2C26.5,7.8,19.5,8.3,18.6,8.4z"/>
		<path fill="#D2B25E" d="M30.2,12.2c0.6,0.4,0.7,0.7,1,0.7c0.2,0,0.3-0.2,0.6-0.6C30.8,11.2,31,10.9,30.2,12.2z"/>
		<path fill="#D2B25E" d="M29.6,10.5C28.3,10,28.4,9.6,28,11c0.6,0.3,0.9,0.5,1.1,0.5C29.3,11.4,29.4,11.2,29.6,10.5z"/>
		<path fill="#D2B25E" d="M32.9,11.7l1.5-3.2c-1.3-1.3-3.1-2.4-5.5-3.2c-0.1,1.2-0.4,2.3-0.9,3.4C30.5,9.4,32,10.4,32.9,11.7z"/>
		<path fill="#D2B25E" d="M22.5,10c0.2,0,0.5,0,0.8,0c0-1.2-0.1-1.1-1-1.1c-0.2,0-0.3,0-0.5,0c-0.1,0-0.1,0-0.2,0
			C21.6,10.1,21.7,10.1,22.5,10z"/>
	</g>
	<g>
		<path fill="#D2B25E" d="M66.7,55.5v6.4h-1.5v-5.1h-3.2v5.1h-1.5v-6.4H66.7z"/>
		<path fill="#D2B25E" d="M69.3,58.7c0-1.9,1.4-3.3,3.4-3.3c2,0,3.4,1.4,3.4,3.3S74.7,62,72.7,62C70.8,62,69.3,60.6,69.3,58.7z
			 M74.6,58.7c0-1.2-0.8-2-1.9-2c-1.1,0-1.9,0.8-1.9,2s0.8,2,1.9,2C73.8,60.7,74.6,59.9,74.6,58.7z"/>
		<path fill="#D2B25E" d="M85.5,60.6v2.7h-1.4v-1.4h-4.9v1.4h-1.4v-2.7h0.3c0.9,0,1.1-1.4,1.1-2.9l0.1-2.2h5.3v5.1H85.5z M79.9,60.6
			h3.2v-3.9h-2.5l0,1C80.5,59,80.4,60.2,79.9,60.6z"/>
		<path fill="#D2B25E" d="M93.3,58.2v3.8h-1.4v-0.8c-0.4,0.6-1.1,0.9-2,0.9c-1.5,0-2.4-0.8-2.4-1.9c0-1.1,0.7-1.9,2.7-1.9h1.7v-0.1
			c0-0.9-0.5-1.4-1.6-1.4c-0.7,0-1.5,0.2-1.9,0.6l-0.6-1.1c0.7-0.5,1.7-0.8,2.7-0.8C92.2,55.4,93.3,56.3,93.3,58.2z M91.8,59.9v-0.7
			h-1.5c-1,0-1.3,0.4-1.3,0.9c0,0.5,0.5,0.9,1.2,0.9C90.9,60.9,91.5,60.6,91.8,59.9z"/>
		<path fill="#D2B25E" d="M103,58.7c0,2-1.4,3.3-3.3,3.3c-0.8,0-1.5-0.3-2.1-0.9v3.1h-1.5v-8.7h1.4v0.8c0.5-0.6,1.2-0.9,2.1-0.9
			C101.6,55.4,103,56.7,103,58.7z M101.5,58.7c0-1.2-0.8-2-1.9-2s-1.9,0.8-1.9,2s0.8,2,1.9,2S101.5,59.9,101.5,58.7z"/>
		<path fill="#D2B25E" d="M108.3,59.3h-1.2v2.6h-1.5v-6.4h1.5v2.6h1.2l1.9-2.6h1.6l-2.3,3.1l2.5,3.3h-1.8L108.3,59.3z"/>
		<path fill="#D2B25E" d="M114.1,55.5h1.5v4.2l3.5-4.2h1.4v6.4H119v-4.2l-3.5,4.2h-1.4V55.5z"/>
		<path fill="#D2B25E" d="M128.1,55.5h1.5v4.2l3.5-4.2h1.4v6.4H133v-4.2l-3.5,4.2h-1.4V55.5z"/>
		<path fill="#D2B25E" d="M141.5,58.7c0-1.9,1.4-3.3,3.5-3.3c1.2,0,2.2,0.5,2.7,1.5l-1.2,0.7c-0.4-0.6-1-0.9-1.6-0.9
			c-1.1,0-1.9,0.8-1.9,2c0,1.2,0.8,2,1.9,2c0.6,0,1.2-0.3,1.6-0.9l1.2,0.7c-0.5,1-1.5,1.5-2.7,1.5C142.9,62,141.5,60.6,141.5,58.7z"
			/>
		<path fill="#D2B25E" d="M156.1,55.5l-3,6.9c-0.6,1.5-1.4,1.9-2.5,1.9c-0.6,0-1.3-0.2-1.7-0.6l0.6-1.1c0.3,0.3,0.7,0.4,1.1,0.4
			c0.5,0,0.8-0.3,1.1-0.9l0.1-0.3l-2.8-6.4h1.6l2,4.7l2-4.7H156.1z"/>
		<path fill="#D2B25E" d="M164,60.1c0,1.1-0.8,1.8-2.6,1.8h-3.3v-6.4h3.1c1.6,0,2.5,0.6,2.5,1.7c0,0.7-0.4,1.2-1,1.4
			C163.6,58.8,164,59.3,164,60.1z M159.6,58.2h1.6c0.8,0,1.2-0.3,1.2-0.8c0-0.5-0.4-0.8-1.2-0.8h-1.6V58.2z M162.6,60
			c0-0.6-0.4-0.8-1.2-0.8h-1.8v1.6h1.7C162.2,60.8,162.6,60.6,162.6,60z"/>
		<path fill="#D2B25E" d="M172.7,59.2h-5c0.2,0.9,1,1.5,2.1,1.5c0.7,0,1.3-0.2,1.7-0.7l0.8,0.9c-0.6,0.7-1.5,1-2.6,1
			c-2.1,0-3.5-1.4-3.5-3.3s1.4-3.3,3.3-3.3c1.9,0,3.2,1.3,3.2,3.3C172.7,58.9,172.7,59,172.7,59.2z M167.7,58.2h3.6
			c-0.1-0.9-0.8-1.6-1.8-1.6C168.5,56.6,167.8,57.3,167.7,58.2z"/>
		<path fill="#D2B25E" d="M175.5,55.5h1.5v2.6h3.2v-2.6h1.5v6.4h-1.5v-2.5H177v2.5h-1.5V55.5z"/>
		<path fill="#D2B25E" d="M184.8,55.5h1.5v4.2l3.5-4.2h1.4v6.4h-1.5v-4.2l-3.5,4.2h-1.4V55.5z"/>
		<path fill="#D2B25E" d="M201.2,58.7c0,2-1.4,3.3-3.3,3.3c-0.8,0-1.5-0.3-2.1-0.9v3.1h-1.5v-8.7h1.4v0.8c0.5-0.6,1.2-0.9,2.1-0.9
			C199.8,55.4,201.2,56.7,201.2,58.7z M199.6,58.7c0-1.2-0.8-2-1.9-2s-1.9,0.8-1.9,2s0.8,2,1.9,2S199.6,59.9,199.6,58.7z"/>
		<path fill="#D2B25E" d="M209.4,59.7c0,1.4-1,2.2-2.7,2.2l-2.9,0v-6.4h1.5v2.1l1.6,0C208.5,57.6,209.4,58.4,209.4,59.7z
			 M207.9,59.7c0-0.7-0.5-1-1.4-1.1l-1.3,0v2.2l1.3,0C207.4,60.8,207.9,60.5,207.9,59.7z M210.2,55.5h1.5v6.4h-1.5V55.5z"/>
	</g>
</g>
</svg>
